<svg xmlns="http://www.w3.org/2000/svg" xml:space="preserve" viewBox="0 0 300 300"><path
  fill="#e3e3e3"
  d="M176.773 18.278c6.151 3.492 12.073 6.629 17.899 9.934 8.572 4.863 17.09 9.824 25.605 14.786 10.65 6.205 21.576 12 31.799 18.846 6.605 4.424 5.538 11.894-1.242 16.008-17.958 10.893-36.387 21.01-54.6 31.485-5.974 3.437-11.882 6.99-17.778 10.558-7.32 4.43-12.869 2.735-17.048-2.189-1.504-1.772-2.295-4.696-2.309-7.1-.156-27.472.054-54.946-.237-82.415-.054-5.085 1.292-9.517 5.08-11.887 3.889-2.433 8.752-1.765 12.831 1.974zM135 92c0 6.993-.235 13.498.068 19.977.285 6.1-3.574 9.42-8.14 11.192-2.61 1.012-6.684.012-9.428-1.391-10.469-5.353-20.77-11.056-30.937-16.967-14.406-8.374-28.698-16.95-42.92-25.636-6.759-4.129-6.706-12.767.046-17.093 5.243-3.358 10.753-6.3 16.149-9.419 19.718-11.396 39.357-22.93 59.194-34.116 8.436-4.756 15.966-.028 15.967 9.518.003 21.145.001 42.29.001 63.935zM52.03 219.998c18.239-10.525 36.064-21.08 53.99-31.463 4.817-2.79 9.808-5.38 14.96-7.464 5.594-2.262 13.937 3.348 13.963 9.367.125 29.293.14 58.588 0 87.881-.036 7.68-9.033 11.807-16.214 7.61-18.857-11.02-37.646-22.157-56.506-33.173-6.335-3.7-12.896-7.02-19.178-10.805-5.28-3.181-6-11.054-1.341-15.046 3.044-2.609 6.615-4.604 10.326-6.907zM193.12 165.985c-1.308-.672-2.165-1.469-3.17-1.965-5.266-2.597-8.365-6.225-8.071-12.656.274-6.004 4.553-8.5 8.55-11.037 7.641-4.853 15.599-9.212 23.464-13.708 7.61-4.35 15.278-8.6 22.904-12.924 7.783-4.413 15.437-9.068 23.346-13.242 9.063-4.784 15.855-.492 15.856 9.706.003 28.316-.247 56.635.149 84.945.122 8.762-7.752 14.209-16.178 9.343-10.69-6.174-21.182-12.687-31.894-18.82-9.974-5.71-20.133-11.095-30.185-16.671-1.536-.853-2.93-1.964-4.77-2.97zM86.712 173.726c-16.321 9.336-32.448 18.261-48.298 27.653-3.944 2.337-7.375 5.01-12.29 4.666-5.19-.365-8.119-3.137-8.12-8.258-.008-29.328-.004-58.655-.004-87.982 0-10.123 7.066-14.364 15.974-9.278 13.794 7.877 27.38 16.117 41.142 24.05 10.357 5.97 20.816 11.764 31.299 17.511 5.784 3.172 6.713 16.307 1.104 19.704-6.73 4.075-13.665 7.812-20.807 11.934zM239.896 248.322c-7.286 4.932-14.39 9.627-21.702 13.972-10.147 6.029-20.478 11.747-30.675 17.694-5.064 2.954-10.407.48-10.457-5.358-.163-19.131-.191-38.266.012-57.396.067-6.318 7.208-8.626 13.953-4.699 15.11 8.798 30.175 17.675 45.278 26.486 3.538 2.064 4.178 5.227 3.591 9.301z"/></svg>
