<?xml version="1.0" encoding="utf-8"?>
<svg xmlns="http://www.w3.org/2000/svg" viewBox="205.072 192.763 28 32" width="28px" height="32px"><path fill-rule="evenodd" d="M 228.072 200.763 C 227.007 200.763 226.072 199.802 226.072 198.763 L 226.072 194.794 L 226.072 194.792 L 231.072 200.763 L 228.072 200.763 Z M 224.072 222.763 L 209.072 222.763 C 208.022 222.763 207.072 221.782 207.072 220.763 L 207.072 200.763 C 207.072 199.276 208.296 198.763 210.072 198.763 L 210.072 216.763 C 210.072 218.822 211.956 220.763 214.072 220.763 C 214.072 220.763 224.914 220.752 226.081 220.752 C 226.081 221.965 225.285 222.763 224.072 222.763 Z M 226.072 192.794 C 225.948 192.794 214.072 192.763 214.072 192.763 C 211.956 192.763 210.072 194.704 210.072 196.763 L 208.917 196.79 C 206.801 196.79 205.072 198.704 205.072 200.763 L 205.072 220.763 C 205.072 222.822 206.956 224.763 209.072 224.763 L 224.072 224.763 C 226.188 224.763 228.072 222.822 228.072 220.763 L 229.072 220.763 C 231.188 220.763 233.072 218.822 233.072 216.763 L 233.072 200.786 L 226.072 192.794 Z" style="stroke-width: 1;" id="object-0"/></svg>