<svg xmlns="http://www.w3.org/2000/svg" viewBox="0 0 24 24"><circle cx="9.54" cy="8.99" r="1"/><circle cx="11.04" cy="11.99" r="1"/><circle cx="8.04" cy="11.99" r="1"/><path d="M19 9.24V15h-4a3 3 0 0 1-6 0H5V5h9.77l2-2H5a2 2 0 0 0-2 2v14a2 2 0 0 0 2 2h14a2 2 0 0 0 2-2V7.24z"/><path d="m17 10.1-.84-.84-.26.26-1.44-1.41.26-.26-.78-.78c-.37-.38-.88-.17-1.15.31l-1.17 1.91a2 2 0 0 1 1.49 1.16 1.54 1.54 0 0 1 .6-.13A1.67 1.67 0 0 1 15.39 12l1.25-.74c.5-.26.71-.78.36-1.16z"/><path d="m15.87 9.53.26-.27 5.28-5.27-1.42-1.42-5.27 5.28-.26.26z"/></svg>
